<svg width="250" height="297" viewBox="0 0 250 297" fill="none" xmlns="http://www.w3.org/2000/svg">
<rect width="250" height="297" fill="white"/>
<path d="M52.3274 296.297L197.681 296.297" stroke="#9B0003"/>
<path d="M178.696 0.0996337L154.087 10.5611L225.391 151.167L250 140.705L178.696 0.0996337Z" fill="#9B0003"/>
<path d="M225.379 129.884L249.988 140.345L178.685 280.951L154.075 270.49L225.379 129.884Z" fill="#9B0003"/>
<path d="M166.184 270.945L178.352 280.927H154.015L166.184 270.945Z" fill="#9B0003"/>
<path d="M154.08 270.324H165.709V280.971H154.08V270.324Z" fill="#9B0003"/>
<path d="M166.184 10.1053L178.352 0.124207H154.015L166.184 10.1053Z" fill="#9B0003"/>
<path d="M150.195 281.592H177.327V172.465H150.195V281.592Z" fill="#9B0003"/>
<path d="M154.08 10.7264H165.709V0.0798588H154.08V10.7264Z" fill="#9B0003"/>
<path d="M150.195 109.473H177.327V0.346031H150.195V109.473Z" fill="#9B0003"/>
<path d="M165.13 0.0996337L140.521 10.5611L211.824 151.167L236.434 140.705L165.13 0.0996337Z" fill="#9B0003"/>
<path d="M211.812 129.884L236.422 140.345L165.118 280.951L140.509 270.49L211.812 129.884Z" fill="#9B0003"/>
<path d="M152.617 270.945L164.786 280.927H140.449L152.617 270.945Z" fill="#9B0003"/>
<path d="M140.514 270.324H152.142V280.971H140.514V270.324Z" fill="#9B0003"/>
<path d="M152.617 10.1053L164.786 0.124207H140.449L152.617 10.1053Z" fill="#9B0003"/>
<path d="M140.514 10.7264H152.142V0.0798588H140.514V10.7264Z" fill="#9B0003"/>
<path d="M140.504 272.72H167.637V172.465H140.504V272.72Z" fill="#9B0003"/>
<path d="M140.504 109.473H167.637V10.1054H140.504V109.473Z" fill="#9B0003"/>
<path d="M71.3036 0.0996337L95.913 10.5611L24.6095 151.167L0 140.705L71.3036 0.0996337Z" fill="#9B0003"/>
<path d="M24.6214 129.884L0.0118961 140.345L71.3155 280.951L95.9249 270.49L24.6214 129.884Z" fill="#9B0003"/>
<path d="M71.7036 281.592H98.8363V172.465H71.7036V281.592Z" fill="#9B0003"/>
<path d="M83.8164 10.1053L71.648 0.124207H95.9848L83.8164 10.1053Z" fill="#9B0003"/>
<path d="M95.9195 10.7264H84.2912V0.0798588H95.9195V10.7264Z" fill="#9B0003"/>
<path d="M84.8657 0.0996337L109.475 10.5611L38.1716 151.167L13.5621 140.705L84.8657 0.0996337Z" fill="#9B0003"/>
<path d="M38.1835 129.884L13.574 140.345L84.8776 280.951L109.487 270.49L38.1835 129.884Z" fill="#9B0003"/>
<path d="M85.2657 281.592H112.398V172.465H85.2657V281.592Z" fill="#9B0003"/>
<path d="M97.3785 10.1053L85.2101 0.124207H109.547L97.3785 10.1053Z" fill="#9B0003"/>
<path d="M110.436 10.6465H98.8078V0H110.436V10.6465Z" fill="#9B0003"/>
</svg>
